<?xml version="1.0" encoding="UTF-8" standalone="no"?>
<svg viewBox="0 0 800 800" xmlns="http://www.w3.org/2000/svg">
  <!-- Tło wazy - czarne dla czerwonofigurowej hydrii -->
  <rect width="800" height="800" fill="#000000"/>
  
  <!-- Wzór podziału na sekcje wazy -->
  <rect x="0" y="0" width="800" height="120" fill="#e8b27d"/> <!-- Brzeg górny -->
  <rect x="0" y="120" width="800" height="5" fill="#e8b27d"/> <!-- Linia podkreślająca -->
  <rect x="0" y="680" width="800" height="120" fill="#e8b27d"/> <!-- Brzeg dolny -->
  <rect x="0" y="675" width="800" height="5" fill="#e8b27d"/> <!-- Linia podkreślająca -->
  
  <!-- Scena główna - kobiety przy studni (typowy motyw hydrii) -->
  <g transform="translate(100, 240)">
    <!-- Pierwsza kobieta z dzbanem na głowie -->
    <g fill="#e8b27d">
      <ellipse cx="100" cy="100" rx="35" ry="40"/> <!-- Głowa -->
      <path d="M85,140 c0,0 -10,120 0,180 c10,20 20,20 30,0 c10,-60 0,-180 0,-180 z"/> <!-- Ciało w długiej sukni -->
      <path d="M85,140 c-20,10 -30,30 -40,50"/> <!-- Lewa ręka -->
      <path d="M115,140 c20,10 30,30 40,50"/> <!-- Prawa ręka -->
      
      <!-- Dzban na głowie -->
      <path d="M70,80 c0,-15 60,-15 60,0 c0,15 -10,25 -30,25 c-20,0 -30,-10 -30,-25 z"/>
      <path d="M85,80 c0,-5 30,-5 30,0 c0,5 -5,10 -15,10 c-10,0 -15,-5 -15,-10 z"/>
    </g>
    
    <!-- Detale czarne -->
    <g fill="none" stroke="#000000" stroke-width="1.5">
      <circle cx="85" cy="95" r="5"/> <!-- Oko -->
      <circle cx="115" cy="95" r="5"/> <!-- Oko -->
      <path d="M90,115 c0,0 10,5 20,0"/> <!-- Usta -->
      <path d="M80,90 c0,0 5,-20 40,-20"/> <!-- Włosy -->
      
      <!-- Wzór na sukni -->
      <path d="M85,170 c0,0 10,10 30,0"/>
      <path d="M85,210 c0,0 10,10 30,0"/>
      <path d="M85,250 c0,0 10,10 30,0"/>
      <path d="M85,290 c0,0 10,10 30,0"/>
    </g>
    
    <!-- Druga kobieta ze studnią -->
    <g fill="#e8b27d">
      <ellipse cx="300" cy="150" rx="35" ry="40"/> <!-- Głowa -->
      <path d="M285,190 c0,0 -10,100 0,130 c10,20 20,20 30,0 c10,-30 0,-130 0,-130 z"/> <!-- Ciało w długiej sukni -->
      <path d="M285,210 c-20,0 -40,20 -60,30"/> <!-- Lewa ręka -->
      <path d="M315,210 c20,0 40,20 60,30"/> <!-- Prawa ręka -->
      
      <!-- Studnia/fontanna -->
      <rect x="370" y="240" width="60" height="80" rx="5"/>
      <rect x="390" y="220" width="20" height="20"/>
      <path d="M390,230 c0,0 -20,-10 -10,-30 c10,-20 30,-20 40,0 c10,20 -10,30 -10,30"/>
      
      <!-- Dzban trzymany w rękach -->
      <path d="M225,240 c0,0 -5,-15 5,-15 c10,0 20,10 20,20 c0,10 -15,20 -15,20"/>
    </g>
    
    <!-- Detale czarne -->
    <g fill="none" stroke="#000000" stroke-width="1.5">
      <circle cx="285" cy="145" r="5"/> <!-- Oko -->
      <circle cx="315" cy="145" r="5"/> <!-- Oko -->
      <path d="M290,165 c0,0 10,5 20,0"/> <!-- Usta -->
      <path d="M280,140 c0,0 5,-20 40,-20"/> <!-- Włosy -->
      
      <!-- Wzór na sukni -->
      <path d="M285,230 c0,0 10,10 30,0"/>
      <path d="M285,260 c0,0 10,10 30,0"/>
      <path d="M285,290 c0,0 10,10 30,0"/>
      
      <!-- Detale studni/fontanny -->
      <rect x="370" y="240" width="60" height="80" rx="5"/>
      <line x1="370" y1="260" x2="430" y2="260"/>
      <line x1="370" y1="280" x2="430" y2="280"/>
      <line x1="370" y1="300" x2="430" y2="300"/>
      
      <!-- Woda wypływająca -->
      <path d="M405,240 c0,0 0,10 -5,20 c-5,10 -15,15 -15,15"/>
    </g>
    
    <!-- Trzecia kobieta z dzbanem -->
    <g fill="#e8b27d">
      <ellipse cx="500" cy="100" rx="35" ry="40"/> <!-- Głowa -->
      <path d="M485,140 c0,0 -10,120 0,180 c10,20 20,20 30,0 c10,-60 0,-180 0,-180 z"/> <!-- Ciało w długiej sukni -->
      <path d="M485,170 c-20,10 -20,30 -20,60"/> <!-- Lewa ręka -->
      <path d="M515,170 c20,10 20,30 20,60"/> <!-- Prawa ręka -->
      
      <!-- Dzban niesiony u boku -->
      <path d="M530,230 a20,30 0 1,0 40,0 a20,30 0 1,0 -40,0 z"/>
      <path d="M550,200 c0,0 -5,-15 0,-20 c5,-5 15,-5 20,0 c5,5 0,20 0,20"/>
    </g>
    
    <!-- Detale czarne -->
    <g fill="none" stroke="#000000" stroke-width="1.5">
      <circle cx="485" cy="95" r="5"/> <!-- Oko -->
      <circle cx="515" cy="95" r="5"/> <!-- Oko -->
      <path d="M490,115 c0,0 10,5 20,0"/> <!-- Usta -->
      <path d="M480,90 c0,0 5,-20 40,-20"/> <!-- Włosy -->
      
      <!-- Wzór na sukni -->
      <path d="M485,170 c0,0 10,10 30,0"/>
      <path d="M485,210 c0,0 10,10 30,0"/>
      <path d="M485,250 c0,0 10,10 30,0"/>
      <path d="M485,290 c0,0 10,10 30,0"/>
      
      <!-- Detale dzbana -->
      <path d="M550,210 c0,0 -5,0 -10,10 c-5,10 0,20 0,20"/>
    </g>
  </g>
  
  <!-- Wzór palmetowy wokół górnego brzegu -->
  <g transform="translate(50, 60)">
    <g fill="#000000">
      <path d="M0,0 c0,0 20,-30 40,0 c20,-30 40,0 40,0 c-10,10 -20,15 -40,15 c-20,0 -30,-5 -40,-15 z"/>
      <path d="M100,0 c0,0 20,-30 40,0 c20,-30 40,0 40,0 c-10,10 -20,15 -40,15 c-20,0 -30,-5 -40,-15 z"/>
      <path d="M200,0 c0,0 20,-30 40,0 c20,-30 40,0 40,0 c-10,10 -20,15 -40,15 c-20,0 -30,-5 -40,-15 z"/>
      <path d="M300,0 c0,0 20,-30 40,0 c20,-30 40,0 40,0 c-10,10 -20,15 -40,15 c-20,0 -30,-5 -40,-15 z"/>
      <path d="M400,0 c0,0 20,-30 40,0 c20,-30 40,0 40,0 c-10,10 -20,15 -40,15 c-20,0 -30,-5 -40,-15 z"/>
      <path d="M500,0 c0,0 20,-30 40,0 c20,-30 40,0 40,0 c-10,10 -20,15 -40,15 c-20,0 -30,-5 -40,-15 z"/>
      <path d="M600,0 c0,0 20,-30 40,0 c20,-30 40,0 40,0 c-10,10 -20,15 -40,15 c-20,0 -30,-5 -40,-15 z"/>
    </g>
  </g>
  
  <!-- Wzór przedstawiający uchwyty hydrii -->
  <g fill="#e8b27d">
    <!-- Lewy uchwyt boczny -->
    <path d="M140,200 c-40,0 -40,60 0,60" stroke="#e8b27d" stroke-width="8" fill="none"/>
    
    <!-- Prawy uchwyt boczny -->
    <path d="M660,200 c40,0 40,60 0,60" stroke="#e8b27d" stroke-width="8" fill="none"/>
    
    <!-- Tylny uchwyt pionowy -->
    <path d="M400,120 c-30,-15 -30,30 0,50 c30,20 30,65 0,65" stroke="#e8b27d" stroke-width="8" fill="none"/>
  </g>
  
  <!-- Wzór meandra na dolnym brzegu -->
  <g transform="translate(50, 710)" fill="#000000">
    <path d="M0,0 h40 v15 h-25 v15 h25 v15 h-40 z"/>
    <path d="M60,0 h40 v15 h-25 v15 h25 v15 h-40 z"/>
    <path d="M120,0 h40 v15 h-25 v15 h25 v15 h-40 z"/>
    <path d="M180,0 h40 v15 h-25 v15 h25 v15 h-40 z"/>
    <path d="M240,0 h40 v15 h-25 v15 h25 v15 h-40 z"/>
    <path d="M300,0 h40 v15 h-25 v15 h25 v15 h-40 z"/>
    <path d="M360,0 h40 v15 h-25 v15 h25 v15 h-40 z"/>
    <path d="M420,0 h40 v15 h-25 v15 h25 v15 h-40 z"/>
    <path d="M480,0 h40 v15 h-25 v15 h25 v15 h-40 z"/>
    <path d="M540,0 h40 v15 h-25 v15 h25 v15 h-40 z"/>
    <path d="M600,0 h40 v15 h-25 v15 h25 v15 h-40 z"/>
    <path d="M660,0 h40 v15 h-25 v15 h25 v15 h-40 z"/>
    <path d="M720,0 h40 v15 h-25 v15 h25 v15 h-40 z"/>
  </g>
  
  <!-- Linie wskazujące na formę hydrii -->
  <g stroke="#444444" stroke-width="1" stroke-dasharray="5,5" fill="none">
    <ellipse cx="400" cy="700" rx="300" ry="50"/> <!-- Zaznaczenie podstawy -->
    <path d="M150,600 c0,0 -50,-300 250,-400 c300,100 250,400 250,400"/> <!-- Zarys kształtu -->
  </g>
</svg>