<?xml version="1.0" encoding="UTF-8" standalone="no"?>
<svg viewBox="0 0 800 800" xmlns="http://www.w3.org/2000/svg">
  <!-- Tło wazy - czarne -->
  <rect width="800" height="800" fill="#000000"/>
  
  <!-- Pas górny - terakota -->
  <rect width="800" height="100" fill="#e8b27d"/>
  
  <!-- Pas dolny - terakota -->
  <rect y="700" width="800" height="100" fill="#e8b27d"/>
  
  <!-- Meander grecki wokół górnego pasa -->
  <g fill="#000000" transform="translate(0, 30)">
    <!-- Powtarzający się wzór meandrowy (grecki klucz) -->
    <path d="M0,0 h60 v20 h-40 v20 h40 v20 h-60 z"/>
    <path d="M80,0 h60 v20 h-40 v20 h40 v20 h-60 z"/>
    <path d="M160,0 h60 v20 h-40 v20 h40 v20 h-60 z"/>
    <path d="M240,0 h60 v20 h-40 v20 h40 v20 h-60 z"/>
    <path d="M320,0 h60 v20 h-40 v20 h40 v20 h-60 z"/>
    <path d="M400,0 h60 v20 h-40 v20 h40 v20 h-60 z"/>
    <path d="M480,0 h60 v20 h-40 v20 h40 v20 h-60 z"/>
    <path d="M560,0 h60 v20 h-40 v20 h40 v20 h-60 z"/>
    <path d="M640,0 h60 v20 h-40 v20 h40 v20 h-60 z"/>
    <path d="M720,0 h60 v20 h-40 v20 h40 v20 h-60 z"/>
  </g>
  
  <!-- Centralna scena - czerwonofigurowy sympozjon -->
  <g transform="translate(100, 200)">
    <!-- Biesiadnicy leżący na kanapach (kline) - postaci terakotowe na czarnym tle -->
    
    <!-- Pierwsza kanapa (kline) -->
    <rect x="0" y="200" width="200" height="50" rx="10" fill="#e8b27d"/> <!-- Kanapa -->
    <rect x="0" y="250" width="200" height="20" fill="#e8b27d"/> <!-- Podstawa kanapy -->
    <circle cx="20" cy="205" r="10" fill="#e8b27d"/> <!-- Ozdoba kanapy -->
    <circle cx="180" cy="205" r="10" fill="#e8b27d"/> <!-- Ozdoba kanapy -->
    
    <!-- Pierwsza postać -->
    <g fill="#e8b27d">
      <ellipse cx="50" cy="180" rx="30" ry="25"/> <!-- Głowa -->
      <path d="M40,205 c0,0 -10,60 -5,90 c5,20 15,20 30,0 c5,-30 10,-90 10,-90 z"/> <!-- Ciało -->
      <path d="M75,205 c0,0 20,10 30,70"/> <!-- Prawa ręka -->
      <path d="M40,205 c0,0 -20,40 -25,50"/> <!-- Lewa ręka -->
      <circle cx="110" cy="270" r="15"/> <!-- Puchar w ręce -->
    </g>
    
    <!-- Detale rysowane czarną linią -->
    <g fill="none" stroke="#000000" stroke-width="1.5">
      <circle cx="40" cy="175" r="3"/> <!-- Oko -->
      <circle cx="60" cy="175" r="3"/> <!-- Oko -->
      <path d="M42,185 c5,5 10,5 15,0"/> <!-- Usta -->
      <path d="M30,170 c0,0 5,-10 20,-15 c15,5 20,15 20,15"/> <!-- Włosy -->
      <path d="M75,205 c0,0 20,10 30,70"/> <!-- Podkreślenie prawej ręki -->
      <circle cx="110" cy="270" r="15" stroke-width="2"/> <!-- Obrys pucharu -->
      <path d="M105,260 c0,0 5,5 10,0"/> <!-- Detal pucharu -->
    </g>
    
    <!-- Druga kanapa (kline) -->
    <rect x="220" y="200" width="200" height="50" rx="10" fill="#e8b27d"/> <!-- Kanapa -->
    <rect x="220" y="250" width="200" height="20" fill="#e8b27d"/> <!-- Podstawa kanapy -->
    <circle cx="240" cy="205" r="10" fill="#e8b27d"/> <!-- Ozdoba kanapy -->
    <circle cx="400" cy="205" r="10" fill="#e8b27d"/> <!-- Ozdoba kanapy -->
    
    <!-- Druga postać -->
    <g fill="#e8b27d">
      <ellipse cx="270" cy="180" rx="30" ry="25"/> <!-- Głowa -->
      <path d="M260,205 c0,0 -10,60 -5,90 c5,20 15,20 30,0 c5,-30 10,-90 10,-90 z"/> <!-- Ciało -->
      <path d="M295,205 c0,0 30,20 40,40"/> <!-- Prawa ręka -->
      <path d="M260,205 c0,0 -20,20 -30,30"/> <!-- Lewa ręka -->
      <circle cx="335" cy="245" r="15"/> <!-- Instrument muzyczny -->
    </g>
    
    <!-- Detale rysowane czarną linią -->
    <g fill="none" stroke="#000000" stroke-width="1.5">
      <circle cx="260" cy="175" r="3"/> <!-- Oko -->
      <circle cx="280" cy="175" r="3"/> <!-- Oko -->
      <path d="M262,185 c5,5 10,5 15,0"/> <!-- Usta -->
      <path d="M250,170 c0,0 5,-10 20,-15 c15,5 20,15 20,15"/> <!-- Włosy -->
      <path d="M295,205 c0,0 30,20 40,40"/> <!-- Podkreślenie prawej ręki -->
      <path d="M335,245 c0,0 -5,-10 0,-15 c5,5 5,15 0,15"/> <!-- Detale instrumentu muzycznego -->
    </g>
    
    <!-- Trzecia postać - służący -->
    <g fill="#e8b27d">
      <ellipse cx="450" cy="220" rx="25" ry="20"/> <!-- Głowa -->
      <rect x="440" y="240" width="20" height="80" rx="5"/> <!-- Ciało -->
      <rect x="430" y="240" width="10" height="50" rx="5"/> <!-- Lewa ręka -->
      <rect x="460" y="240" width="10" height="60" rx="5"/> <!-- Prawa ręka -->
      <rect x="435" y="320" width="10" height="40" rx="3"/> <!-- Lewa noga -->
      <rect x="455" y="320" width="10" height="40" rx="3"/> <!-- Prawa noga -->
      <ellipse cx="475" cy="260" rx="20" ry="30"/> <!-- Dzban -->
    </g>
    
    <!-- Detale rysowane czarną linią -->
    <g fill="none" stroke="#000000" stroke-width="1.5">
      <circle cx="440" cy="215" r="3"/> <!-- Oko -->
      <circle cx="460" cy="215" r="3"/> <!-- Oko -->
      <path d="M442,225 c5,5 10,5 15,0"/> <!-- Usta -->
      <path d="M430,210 c0,0 5,-10 20,-10 c15,0 20,10 20,10"/> <!-- Włosy -->
      <path d="M475,260 c0,0 10,-10 10,0 c0,10 -10,20 -10,20"/> <!-- Detal dzbana -->
    </g>
    
    <!-- Elementy wyposażenia sympozjonu -->
    <g fill="#e8b27d">
      <rect x="150" y="300" width="50" height="30" rx="5"/> <!-- Mały stolik -->
      <circle cx="160" cy="330" r="5"/> <!-- Noga stolika -->
      <circle cx="190" cy="330" r="5"/> <!-- Noga stolika -->
      <ellipse cx="175" cy="290" rx="20" ry="10"/> <!-- Potrawa na stoliku -->
      
      <ellipse cx="350" cy="310" rx="15" ry="10"/> <!-- Potrawa na podłodze -->
      <circle cx="380" cy="300" r="12"/> <!-- Dzban na podłodze -->
    </g>
    
    <!-- Detale rysowane czarną linią -->
    <g fill="none" stroke="#000000" stroke-width="1.5">
      <path d="M165,290 c0,0 5,5 20,0"/> <!-- Detal potrawy -->
      <path d="M380,300 c0,0 5,-5 5,0 c0,5 -5,10 -5,10"/> <!-- Detal dzbana -->
    </g>
  </g>
  
  <!-- Ornament palmetowy pod główną sceną -->
  <g transform="translate(200, 600)">
    <!-- Powtarzające się palmety -->
    <g fill="#e8b27d">
      <path d="M0,0 c0,0 20,-40 40,0 c20,-40 40,0 40,0 c-10,10 -20,15 -40,15 c-20,0 -30,-5 -40,-15 z"/>
      <path d="M100,0 c0,0 20,-40 40,0 c20,-40 40,0 40,0 c-10,10 -20,15 -40,15 c-20,0 -30,-5 -40,-15 z"/>
      <path d="M200,0 c0,0 20,-40 40,0 c20,-40 40,0 40,0 c-10,10 -20,15 -40,15 c-20,0 -30,-5 -40,-15 z"/>
      <path d="M300,0 c0,0 20,-40 40,0 c20,-40 40,0 40,0 c-10,10 -20,15 -40,15 c-20,0 -30,-5 -40,-15 z"/>
    </g>
    
    <!-- Detale ornamentu -->
    <g fill="none" stroke="#000000" stroke-width="1.5">
      <path d="M20,-20 c0,0 0,10 0,20"/>
      <path d="M40,-30 c0,0 0,20 0,30"/>
      <path d="M60,-20 c0,0 0,10 0,20"/>
      
      <path d="M120,-20 c0,0 0,10 0,20"/>
      <path d="M140,-30 c0,0 0,20 0,30"/>
      <path d="M160,-20 c0,0 0,10 0,20"/>
      
      <path d="M220,-20 c0,0 0,10 0,20"/>
      <path d="M240,-30 c0,0 0,20 0,30"/>
      <path d="M260,-20 c0,0 0,10 0,20"/>
      
      <path d="M320,-20 c0,0 0,10 0,20"/>
      <path d="M340,-30 c0,0 0,20 0,30"/>
      <path d="M360,-20 c0,0 0,10 0,20"/>
    </g>
  </g>
  
  <!-- Meander grecki wokół dolnego pasa -->
  <g fill="#000000" transform="translate(0, 730)">
    <!-- Powtarzający się wzór meandrowy (grecki klucz) -->
    <path d="M0,0 h60 v20 h-40 v20 h40 v20 h-60 z"/>
    <path d="M80,0 h60 v20 h-40 v20 h40 v20 h-60 z"/>
    <path d="M160,0 h60 v20 h-40 v20 h40 v20 h-60 z"/>
    <path d="M240,0 h60 v20 h-40 v20 h40 v20 h-60 z"/>
    <path d="M320,0 h60 v20 h-40 v20 h40 v20 h-60 z"/>
    <path d="M400,0 h60 v20 h-40 v20 h40 v20 h-60 z"/>
    <path d="M480,0 h60 v20 h-40 v20 h40 v20 h-60 z"/>
    <path d="M560,0 h60 v20 h-40 v20 h40 v20 h-60 z"/>
    <path d="M640,0 h60 v20 h-40 v20 h40 v20 h-60 z"/>
    <path d="M720,0 h60 v20 h-40 v20 h40 v20 h-60 z"/>
  </g>
</svg>